

                Rychly Prachy (PRAHA - 10.04.2011)



Screen:          http://image.bayimg.com/kahliaadi.jpg
Oficial website: http://rychlyprachy.cz/
Direct Link:     http://rychlyprachy.cz/video51.cz.html



General
Complete name                    : Rychly Prachy (PRAHA - 10.04.2011).wmv
Format                           : Windows Media
File size                        : 313 MiB
Duration                         : 20mn 15s
Overall bit rate mode            : Constant
Overall bit rate                 : 2 163 Kbps
Maximum Overall bit rate         : 2 171 Kbps
Encoded date                     : UTC 2011-04-10 21:48:18.263
SfOriginalFPS                    : 300000

Video
ID                               : 2
Format                           : VC-1
Format profile                   : MP@ML
Codec ID                         : WMV3
Codec ID/Info                    : Windows Media Video 9
Codec ID/Hint                    : WMV3
Description of the codec         : Windows Media Video 9 - Professional
Duration                         : 20mn 15s
Bit rate mode                    : Constant
Bit rate                         : 2 086 Kbps
Width                            : 640 pixels
Height                           : 480 pixels
Display aspect ratio             : 4:3
Frame rate                       : 30.000 fps
Bit depth                        : 8 bits
Scan type                        : Progressive
Compression mode                 : Lossy
Bits/(Pixel*Frame)               : 0.226
Stream size                      : 302 MiB (96%)
Language                         : Czech

Audio
ID                               : 1
Format                           : WMA
Format version                   : Version 2
Codec ID                         : 161
Codec ID/Info                    : Windows Media Audio
Description of the codec         : Windows Media Audio 9.2 -  64 kbps, 44 kHz, stereo (A/V) 1-pass CBR
Duration                         : 20mn 15s
Bit rate mode                    : Constant
Bit rate                         : 64.0 Kbps
Channel(s)                       : 2 channels
Sampling rate                    : 44.1 KHz
Bit depth                        : 16 bits
Stream size                      : 9.28 MiB (3%)
Language                         : Czech

